<svg width="117" height="55" viewBox="0 0 117 55" fill="none" xmlns="http://www.w3.org/2000/svg">
<ellipse cx="56.9736" cy="17.9946" rx="54.1874" ry="16.6175" fill="#F9D248"/>
<ellipse cx="55.7494" cy="21.8203" rx="54.1874" ry="16.6175" transform="rotate(-5.42624 55.7494 21.8203)" fill="#F9D248" fill-opacity="0.5"/>
<path d="M20.4985 23.9155H15.7911V13.6001H20.4985V15.2582H17.7341V17.7136H20.2985V19.3787H17.7341V22.2362H20.4985V23.9155Z" fill="white"/>
<path d="M24.0087 19.9008L22.0229 16.0555H23.9944L25.0516 18.4544L26.0302 16.0555H27.9875L25.9874 19.9008L28.0732 23.9155H26.0874L24.9587 21.4037L23.9087 23.9155H21.93L24.0087 19.9008Z" fill="white"/>
<path d="M33.2763 24.0566C32.9334 24.0566 32.6286 23.9813 32.362 23.8308C32.1 23.6756 31.8548 23.4051 31.6262 23.0194H31.5262C31.6024 23.6591 31.6405 24.0448 31.6405 24.1765V27.3869H29.7261V16.0555H31.1976L31.5262 17.0786H31.6119C32.0072 16.2977 32.581 15.9073 33.3334 15.9073C34.0573 15.9073 34.624 16.2625 35.0335 16.9727C35.4431 17.6783 35.6478 18.6778 35.6478 19.9714C35.6478 21.2461 35.4359 22.2457 35.0121 22.97C34.5883 23.6944 34.0097 24.0566 33.2763 24.0566ZM32.6906 17.5019C32.3191 17.5019 32.05 17.6736 31.8834 18.017C31.7215 18.3556 31.6357 18.9201 31.6262 19.7103V19.9573C31.6262 20.8228 31.7096 21.4531 31.8762 21.8482C32.0429 22.2433 32.3191 22.4409 32.7048 22.4409C33.3715 22.4409 33.7049 21.6083 33.7049 19.9432C33.7049 19.1247 33.6216 18.5132 33.4549 18.1087C33.293 17.7042 33.0382 17.5019 32.6906 17.5019Z" fill="white"/>
<path d="M39.6152 23.9155H37.7151V12.9369H39.6152V23.9155Z" fill="white"/>
<path d="M47.8399 19.9714C47.8399 21.2602 47.5637 22.2645 47.0113 22.9841C46.4589 23.6991 45.7017 24.0566 44.7397 24.0566C44.1302 24.0566 43.5921 23.892 43.1254 23.5627C42.6587 23.2334 42.2991 22.7607 42.0467 22.1445C41.7943 21.5236 41.6681 20.7992 41.6681 19.9714C41.6681 18.6967 41.942 17.7018 42.4896 16.9868C43.0373 16.2672 43.7968 15.9073 44.7683 15.9073C45.7064 15.9073 46.4517 16.2742 47.0041 17.008C47.5613 17.7371 47.8399 18.7249 47.8399 19.9714ZM43.6111 19.9714C43.6111 20.7898 43.7016 21.4084 43.8825 21.827C44.0635 22.2457 44.354 22.455 44.754 22.455C45.516 22.455 45.8969 21.6271 45.8969 19.9714C45.8969 19.1482 45.8041 18.5344 45.6183 18.1299C45.4374 17.7206 45.1493 17.516 44.754 17.516C44.354 17.516 44.0635 17.7206 43.8825 18.1299C43.7016 18.5344 43.6111 19.1482 43.6111 19.9714Z" fill="white"/>
<path d="M53.3002 15.9073C53.5335 15.9073 53.7621 15.9426 53.9859 16.0132L53.7645 17.8335C53.6311 17.7865 53.4573 17.763 53.243 17.763C52.7811 17.763 52.4263 17.9441 52.1787 18.3062C51.931 18.6637 51.8072 19.1858 51.8072 19.8726V23.9155H49.9071V16.0555H51.4715L51.6858 17.2832H51.7501C51.9596 16.7893 52.1882 16.4365 52.4358 16.2248C52.6835 16.0132 52.9716 15.9073 53.3002 15.9073Z" fill="white"/>
<path d="M58.5033 24.0566C57.508 24.0566 56.7222 23.7085 56.146 23.0124C55.5746 22.3115 55.2888 21.3214 55.2888 20.0419C55.2888 18.7437 55.5484 17.73 56.0674 17.0009C56.5865 16.2719 57.3104 15.9073 58.239 15.9073C59.1057 15.9073 59.7891 16.2201 60.2891 16.8457C60.7891 17.4666 61.0391 18.3392 61.0391 19.4634V20.4653H57.2175C57.2318 21.1661 57.377 21.6883 57.6532 22.0316C57.9294 22.3703 58.3104 22.5396 58.7961 22.5396C59.4152 22.5396 60.0486 22.3491 60.6962 21.9681V23.5133C60.0867 23.8755 59.3557 24.0566 58.5033 24.0566ZM58.2247 17.3537C57.9532 17.3537 57.7294 17.4972 57.5532 17.7841C57.377 18.0664 57.2746 18.5062 57.2461 19.1035H59.1747C59.1652 18.5297 59.0771 18.0946 58.9104 17.7982C58.7438 17.5019 58.5152 17.3537 58.2247 17.3537Z" fill="white"/>
<path d="M66.928 23.9155L66.5494 22.843H66.5065C66.2256 23.304 65.9351 23.6215 65.6351 23.7955C65.3351 23.9696 64.9565 24.0566 64.4993 24.0566C63.9135 24.0566 63.4516 23.8402 63.1135 23.4075C62.7802 22.9747 62.6135 22.3727 62.6135 21.6012C62.6135 20.7734 62.8421 20.1595 63.2992 19.7597C63.7612 19.3552 64.4493 19.1318 65.3636 19.0894L66.4208 19.0471V18.4826C66.4208 17.7488 66.0994 17.382 65.4565 17.382C64.9803 17.382 64.4326 17.5654 63.8135 17.9323L63.1564 16.6341C63.9469 16.1402 64.8065 15.8932 65.7351 15.8932C66.578 15.8932 67.2185 16.1331 67.6566 16.6129C68.0995 17.088 68.3209 17.763 68.3209 18.6379V23.9155H66.928ZM65.2779 22.589C65.6255 22.589 65.9017 22.4362 66.1065 22.1304C66.316 21.82 66.4208 21.4084 66.4208 20.8957V20.2324L65.8351 20.2607C65.4017 20.2842 65.0827 20.4065 64.8779 20.6276C64.6779 20.8486 64.5779 21.1779 64.5779 21.6153C64.5779 22.2645 64.8112 22.589 65.2779 22.589Z" fill="white"/>
<path d="M74.5527 23.9155V19.2305C74.5527 18.0781 74.2598 17.5019 73.674 17.5019C73.2359 17.5019 72.9288 17.73 72.7526 18.1863C72.5764 18.6379 72.4883 19.2893 72.4883 20.1407V23.9155H70.5882V12.9369H72.4883V15.3781C72.4883 15.6933 72.4597 16.2554 72.4025 17.0644H72.5026C72.8835 16.293 73.4693 15.9073 74.2598 15.9073C74.9884 15.9073 75.5384 16.1519 75.9099 16.6411C76.2813 17.1256 76.467 17.8406 76.467 18.786V23.9155H74.5527Z" fill="white"/>
<path d="M84.6274 19.9714C84.6274 21.2602 84.3512 22.2645 83.7988 22.9841C83.2464 23.6991 82.4892 24.0566 81.5273 24.0566C80.9177 24.0566 80.3796 23.892 79.9129 23.5627C79.4462 23.2334 79.0867 22.7607 78.8343 22.1445C78.5819 21.5236 78.4557 20.7992 78.4557 19.9714C78.4557 18.6967 78.7295 17.7018 79.2772 16.9868C79.8248 16.2672 80.5844 15.9073 81.5559 15.9073C82.494 15.9073 83.2393 16.2742 83.7917 17.008C84.3489 17.7371 84.6274 18.7249 84.6274 19.9714ZM80.3987 19.9714C80.3987 20.7898 80.4891 21.4084 80.6701 21.827C80.8511 22.2457 81.1416 22.455 81.5416 22.455C82.3035 22.455 82.6845 21.6271 82.6845 19.9714C82.6845 19.1482 82.5916 18.5344 82.4059 18.1299C82.2249 17.7206 81.9368 17.516 81.5416 17.516C81.1416 17.516 80.8511 17.7206 80.6701 18.1299C80.4891 18.5344 80.3987 19.1482 80.3987 19.9714Z" fill="white"/>
<path d="M88.5948 23.9155H86.6947V12.9369H88.5948V23.9155Z" fill="white"/>
<path d="M92.8407 23.9155H90.9406V16.0555H92.8407V23.9155ZM90.862 14.0023C90.862 13.6918 90.9525 13.4472 91.1335 13.2685C91.3192 13.0851 91.5764 12.9933 91.9049 12.9933C92.2145 12.9933 92.4621 13.0851 92.6478 13.2685C92.8336 13.4472 92.9264 13.6918 92.9264 14.0023C92.9264 14.3222 92.8312 14.5714 92.6407 14.7502C92.4502 14.9242 92.205 15.0113 91.9049 15.0113C91.5906 15.0113 91.3383 14.9242 91.1478 14.7502C90.9573 14.5714 90.862 14.3222 90.862 14.0023Z" fill="white"/>
<path d="M97.8295 24.0566C96.8819 24.0566 96.1604 23.7156 95.6651 23.0335C95.1699 22.3515 94.9222 21.3496 94.9222 20.0278C94.9222 18.6449 95.1556 17.6124 95.6223 16.9304C96.0937 16.2483 96.82 15.9073 97.801 15.9073C98.0962 15.9073 98.4058 15.9497 98.7296 16.0343C99.0534 16.119 99.3439 16.2413 99.601 16.4012L99.0582 17.8617C98.6629 17.6313 98.3129 17.516 98.0081 17.516C97.6033 17.516 97.3105 17.7253 97.1295 18.144C96.9533 18.5579 96.8652 19.1811 96.8652 20.0137C96.8652 20.8275 96.9533 21.4366 97.1295 21.8411C97.3057 22.2409 97.5938 22.4409 97.9938 22.4409C98.47 22.4409 98.9677 22.2762 99.4868 21.947V23.598C98.9867 23.9037 98.4343 24.0566 97.8295 24.0566Z" fill="white"/>
<g clip-path="url(#clip0_21_18)">
<path fill-rule="evenodd" clip-rule="evenodd" d="M64.3914 45.1951C64.3167 45.3117 64.2826 45.4551 64.3056 45.6027C64.3423 45.8378 64.5137 46.0185 64.729 46.0783L76.6304 49.6797C76.8609 49.7495 77.1107 49.6714 77.2605 49.4828C77.4103 49.2942 77.4298 49.0333 77.3097 48.8245L74.5373 44.0052L75.7087 38.5702C75.7595 38.3348 75.6613 38.0922 75.4612 37.9582C75.261 37.8243 74.9993 37.8261 74.801 37.9628L64.5635 45.021C64.5201 45.0495 64.481 45.0835 64.4469 45.1219C64.4266 45.1448 64.408 45.1693 64.3914 45.1951ZM67.5202 45.6954L75.5524 48.126L73.6074 44.745L67.5202 45.6954ZM73.4261 43.5842L67.3389 44.5346L74.248 39.7712L73.4261 43.5842Z" fill="white"/>
</g>
<path d="M78.6486 43.2818C88.7635 41.1143 106.104 34.6119 113.329 25.942C119.769 19.5015 115.496 4.26698 90.2085 2.09949" stroke="url(#paint0_linear_21_18)" stroke-dasharray="2 2"/>
<defs>
<linearGradient id="paint0_linear_21_18" x1="97.3243" y1="2.09949" x2="97.3243" y2="43.2818" gradientUnits="userSpaceOnUse">
<stop stop-color="white" stop-opacity="0.1"/>
<stop offset="1" stop-color="white"/>
</linearGradient>
<clipPath id="clip0_21_18">
<rect width="14.099" height="14.099" fill="white" transform="translate(74.6324 54.0806) rotate(-143.874)"/>
</clipPath>
</defs>
</svg>
