<svg width="81" height="38" viewBox="0 0 81 38" fill="none" xmlns="http://www.w3.org/2000/svg">
<ellipse cx="39.5" cy="12.5" rx="37.5" ry="11.5" fill="#F9D248"/>
<ellipse cx="38.6528" cy="15.1477" rx="37.5" ry="11.5" transform="rotate(-5.42624 38.6528 15.1477)" fill="#F9D248" fill-opacity="0.5"/>
<path d="M14.2577 16.5977H11V9.45898H14.2577V10.6064H12.3446V12.3057H14.1193V13.458H12.3446V15.4355H14.2577V16.5977Z" fill="white"/>
<path d="M16.6869 13.8193L15.3126 11.1582H16.677L17.4086 12.8184L18.0859 11.1582H19.4404L18.0562 13.8193L19.4997 16.5977H18.1254L17.3444 14.8594L16.6177 16.5977H15.2484L16.6869 13.8193Z" fill="white"/>
<path d="M23.1005 16.6953C22.8632 16.6953 22.6523 16.6432 22.4677 16.5391C22.2865 16.4316 22.1167 16.2445 21.9585 15.9775H21.8893C21.9421 16.4202 21.9684 16.6872 21.9684 16.7783V19H20.6436V11.1582H21.6619L21.8893 11.8662H21.9487C22.2222 11.3258 22.6193 11.0557 23.14 11.0557C23.641 11.0557 24.0331 11.3014 24.3166 11.793C24.6 12.2812 24.7417 12.973 24.7417 13.8682C24.7417 14.7503 24.595 15.4421 24.3017 15.9434C24.0084 16.4447 23.608 16.6953 23.1005 16.6953ZM22.6951 12.1592C22.4381 12.1592 22.2519 12.278 22.1365 12.5156C22.0245 12.75 21.9651 13.1406 21.9585 13.6875V13.8584C21.9585 14.4574 22.0162 14.8936 22.1316 15.167C22.2469 15.4404 22.4381 15.5771 22.705 15.5771C23.1664 15.5771 23.3971 15.001 23.3971 13.8486C23.3971 13.2822 23.3394 12.859 23.2241 12.5791C23.112 12.2992 22.9357 12.1592 22.6951 12.1592Z" fill="white"/>
<path d="M27.4872 16.5977H26.1723V9H27.4872V16.5977Z" fill="white"/>
<path d="M33.1791 13.8682C33.1791 14.7601 32.9879 15.4551 32.6057 15.9531C32.2234 16.4479 31.6994 16.6953 31.0337 16.6953C30.6118 16.6953 30.2394 16.5814 29.9164 16.3535C29.5935 16.1257 29.3447 15.7985 29.17 15.3721C28.9953 14.9424 28.908 14.4411 28.908 13.8682C28.908 12.986 29.0975 12.2975 29.4765 11.8027C29.8555 11.3047 30.3811 11.0557 31.0534 11.0557C31.7027 11.0557 32.2184 11.3096 32.6007 11.8174C32.9863 12.3219 33.1791 13.0055 33.1791 13.8682ZM30.2526 13.8682C30.2526 14.4346 30.3152 14.8626 30.4404 15.1523C30.5657 15.4421 30.7667 15.5869 31.0435 15.5869C31.5708 15.5869 31.8345 15.014 31.8345 13.8682C31.8345 13.2985 31.7702 12.8737 31.6417 12.5938C31.5165 12.3105 31.3171 12.1689 31.0435 12.1689C30.7667 12.1689 30.5657 12.3105 30.4404 12.5938C30.3152 12.8737 30.2526 13.2985 30.2526 13.8682Z" fill="white"/>
<path d="M36.9578 11.0557C37.1193 11.0557 37.2775 11.0801 37.4324 11.1289L37.2792 12.3887C37.1869 12.3561 37.0666 12.3398 36.9183 12.3398C36.5986 12.3398 36.3531 12.4652 36.1817 12.7158C36.0103 12.9632 35.9247 13.3245 35.9247 13.7998V16.5977H34.6097V11.1582H35.6923L35.8406 12.0078H35.8851C36.0301 11.666 36.1883 11.4219 36.3597 11.2754C36.531 11.1289 36.7304 11.0557 36.9578 11.0557Z" fill="white"/>
<path d="M40.5586 16.6953C39.8698 16.6953 39.3261 16.4544 38.9273 15.9727C38.5318 15.4876 38.3341 14.8024 38.3341 13.917C38.3341 13.0186 38.5137 12.3171 38.8729 11.8125C39.2321 11.3079 39.7331 11.0557 40.3757 11.0557C40.9755 11.0557 41.4484 11.2721 41.7945 11.7051C42.1405 12.1348 42.3135 12.7386 42.3135 13.5166V14.21H39.6688C39.6787 14.695 39.7792 15.0563 39.9703 15.2939C40.1615 15.5283 40.4251 15.6455 40.7613 15.6455C41.1897 15.6455 41.628 15.5137 42.0762 15.25V16.3193C41.6544 16.57 41.1485 16.6953 40.5586 16.6953ZM40.3658 12.0566C40.178 12.0566 40.0231 12.1559 39.9011 12.3545C39.7792 12.5498 39.7083 12.8542 39.6886 13.2676H41.0233C41.0167 12.8704 40.9557 12.5693 40.8404 12.3643C40.725 12.1592 40.5668 12.0566 40.3658 12.0566Z" fill="white"/>
<path d="M46.3889 16.5977L46.1269 15.8555H46.0972C45.9028 16.1745 45.7017 16.3942 45.4941 16.5146C45.2865 16.6351 45.0245 16.6953 44.7081 16.6953C44.3027 16.6953 43.9831 16.5456 43.7491 16.2461C43.5184 15.9466 43.403 15.5299 43.403 14.9961C43.403 14.4232 43.5612 13.9984 43.8776 13.7217C44.1973 13.4417 44.6735 13.2871 45.3063 13.2578L46.0379 13.2285V12.8379C46.0379 12.3301 45.8154 12.0762 45.3705 12.0762C45.041 12.0762 44.662 12.2031 44.2335 12.457L43.7787 11.5586C44.3258 11.2168 44.9207 11.0459 45.5633 11.0459C46.1466 11.0459 46.5899 11.2119 46.8931 11.5439C47.1996 11.8727 47.3528 12.3398 47.3528 12.9453V16.5977H46.3889ZM45.2469 15.6797C45.4875 15.6797 45.6787 15.5739 45.8204 15.3623C45.9654 15.1475 46.0379 14.8626 46.0379 14.5078V14.0488L45.6325 14.0684C45.3326 14.0846 45.1118 14.1693 44.9701 14.3223C44.8317 14.4753 44.7625 14.7031 44.7625 15.0059C44.7625 15.4551 44.924 15.6797 45.2469 15.6797Z" fill="white"/>
<path d="M51.6655 16.5977V13.3555C51.6655 12.5579 51.4628 12.1592 51.0574 12.1592C50.7542 12.1592 50.5417 12.3171 50.4197 12.6328C50.2978 12.9453 50.2368 13.3962 50.2368 13.9854V16.5977H48.9219V9H50.2368V10.6895C50.2368 10.9076 50.217 11.2965 50.1775 11.8564H50.2467C50.5103 11.3226 50.9157 11.0557 51.4628 11.0557C51.967 11.0557 52.3476 11.2249 52.6047 11.5635C52.8618 11.8988 52.9903 12.3936 52.9903 13.0479V16.5977H51.6655Z" fill="white"/>
<path d="M58.6376 13.8682C58.6376 14.7601 58.4465 15.4551 58.0642 15.9531C57.6819 16.4479 57.1579 16.6953 56.4922 16.6953C56.0704 16.6953 55.698 16.5814 55.375 16.3535C55.052 16.1257 54.8032 15.7985 54.6285 15.3721C54.4539 14.9424 54.3665 14.4411 54.3665 13.8682C54.3665 12.986 54.556 12.2975 54.935 11.8027C55.314 11.3047 55.8397 11.0557 56.512 11.0557C57.1612 11.0557 57.677 11.3096 58.0593 11.8174C58.4448 12.3219 58.6376 13.0055 58.6376 13.8682ZM55.7111 13.8682C55.7111 14.4346 55.7738 14.8626 55.899 15.1523C56.0242 15.4421 56.2253 15.5869 56.5021 15.5869C57.0294 15.5869 57.293 15.014 57.293 13.8682C57.293 13.2985 57.2288 12.8737 57.1002 12.5938C56.975 12.3105 56.7756 12.1689 56.5021 12.1689C56.2253 12.1689 56.0242 12.3105 55.899 12.5938C55.7738 12.8737 55.7111 13.2985 55.7111 13.8682Z" fill="white"/>
<path d="M61.3832 16.5977H60.0683V9H61.3832V16.5977Z" fill="white"/>
<path d="M64.3216 16.5977H63.0066V11.1582H64.3216V16.5977ZM62.9522 9.7373C62.9522 9.52246 63.0149 9.35319 63.1401 9.22949C63.2686 9.10254 63.4466 9.03906 63.674 9.03906C63.8882 9.03906 64.0596 9.10254 64.1881 9.22949C64.3166 9.35319 64.3809 9.52246 64.3809 9.7373C64.3809 9.95866 64.315 10.1312 64.1831 10.2549C64.0513 10.3753 63.8816 10.4355 63.674 10.4355C63.4565 10.4355 63.2818 10.3753 63.15 10.2549C63.0182 10.1312 62.9522 9.95866 62.9522 9.7373Z" fill="white"/>
<path d="M67.774 16.6953C67.1182 16.6953 66.6189 16.4593 66.2762 15.9873C65.9334 15.5153 65.7621 14.8219 65.7621 13.9072C65.7621 12.9502 65.9236 12.2357 66.2465 11.7637C66.5728 11.2917 67.0754 11.0557 67.7543 11.0557C67.9586 11.0557 68.1728 11.085 68.3969 11.1436C68.621 11.2021 68.822 11.2868 69 11.3975L68.6243 12.4082C68.3508 12.2487 68.1085 12.1689 67.8976 12.1689C67.6175 12.1689 67.4148 12.3138 67.2896 12.6035C67.1676 12.89 67.1067 13.3213 67.1067 13.8975C67.1067 14.4606 67.1676 14.8822 67.2896 15.1621C67.4115 15.4388 67.6109 15.5771 67.8877 15.5771C68.2173 15.5771 68.5617 15.4632 68.9209 15.2354V16.3779C68.5749 16.5895 68.1926 16.6953 67.774 16.6953Z" fill="white"/>
<g clip-path="url(#clip0_21_18)">
<path fill-rule="evenodd" clip-rule="evenodd" d="M44.6335 31.3241C44.5817 31.4048 44.5581 31.504 44.5741 31.6061C44.5995 31.7688 44.7181 31.8938 44.867 31.9353L53.1033 34.4276C53.2629 34.4759 53.4357 34.4218 53.5394 34.2913C53.6431 34.1608 53.6566 33.9802 53.5735 33.8357L51.6548 30.5006L52.4655 26.7393C52.5006 26.5764 52.4327 26.4085 52.2942 26.3158C52.1556 26.2231 51.9746 26.2244 51.8373 26.319L44.7525 31.2035C44.7225 31.2233 44.6954 31.2468 44.6719 31.2733C44.6578 31.2892 44.6449 31.3062 44.6335 31.3241ZM46.7987 31.6703L52.3573 33.3523L51.0113 31.0125L46.7987 31.6703ZM50.8858 30.2092L46.6732 30.8669L51.4546 27.5704L50.8858 30.2092Z" fill="#13161E"/>
</g>
<path d="M54.5 29.9999C61.5 28.4999 73.5 24 78.5 18C82.957 13.5429 80 3 62.5 1.5" stroke="url(#paint0_linear_21_18)" stroke-dasharray="2 2"/>
<defs>
<linearGradient id="paint0_linear_21_18" x1="67.4244" y1="1.5" x2="67.4244" y2="29.9999" gradientUnits="userSpaceOnUse">
<stop stop-color="#13161E" stop-opacity="0.1"/>
<stop offset="1" stop-color="#13161E"/>
</linearGradient>
<clipPath id="clip0_21_18">
<rect width="9.75708" height="9.75708" fill="white" transform="translate(51.7207 37.4731) rotate(-143.874)"/>
</clipPath>
</defs>
</svg>
